<svg xmlns="http://www.w3.org/2000/svg" width="119" height="36" viewBox="0 0 119 36" fill="none">
<g clip-path="url(#clip0_277_1327)">
<path d="M117.576 17.1574C117.111 15.847 116.384 14.6143 115.414 13.4927C114.558 12.5043 113.642 11.638 112.69 10.9199C112.546 10.8088 112.436 10.7089 112.347 10.6238C112.502 10.5238 112.709 10.4128 112.978 10.298L113.059 10.261L113.141 10.2203C113.181 10.198 113.203 10.1943 113.203 10.1943C113.591 10.0981 113.997 9.95373 114.406 9.76494L114.421 9.75754L114.436 9.75013C115.24 9.37255 115.905 8.84319 116.418 8.17687C117.023 7.38468 117.348 6.42221 117.362 5.37831C117.44 3.29049 116.344 1.53214 114.421 0.669617L114.399 0.658511L114.377 0.647406C113.366 0.214295 112.314 -0.0078125 111.251 -0.0078125C110.779 -0.0078125 110.303 0.0366091 109.827 0.121751C108.45 0.373473 107.151 0.906532 105.963 1.71352C104.826 2.4835 103.826 3.46077 102.996 4.61944C102.461 5.3635 102.029 6.14828 101.704 6.95897C100.948 6.07424 100.077 5.31167 99.1025 4.67867C97.774 3.81985 96.3716 3.26088 94.9435 3.01656C94.3309 2.91291 93.7146 2.85738 93.1057 2.85738C92.3012 2.85738 91.4967 2.94993 90.7106 3.13131C89.3711 3.44227 88.0721 4.00494 86.8506 4.80453C85.773 5.51157 84.7876 6.41481 83.9057 7.46612C83.5219 6.89604 83.0532 6.37779 82.4922 5.91507C81.5512 5.13399 80.4699 4.50838 79.2743 4.04936C78.1524 3.61995 76.9715 3.32751 75.7684 3.19054C75.1226 3.11651 74.5027 3.07949 73.9233 3.07949C73.4361 3.07949 72.9601 3.1054 72.5136 3.15723H72.484L72.4545 3.16463C69.8786 3.52 67.6238 4.37882 65.7528 5.72257C65.1218 6.17419 64.5424 6.69985 64.011 7.27733C63.6752 6.83311 63.3025 6.42592 62.8854 6.05944C61.7488 5.07106 60.3612 4.38993 58.7596 4.03825C58.0068 3.86057 57.2429 3.77173 56.479 3.77173C56.0509 3.77173 55.6155 3.80134 55.1837 3.85687C54.0286 4.00864 52.9104 4.3344 51.8661 4.83044C50.8291 5.32278 49.8659 5.97059 49.0097 6.75538C48.8695 6.88494 48.7403 7.02191 48.6112 7.15517C48.3012 6.75908 47.958 6.3889 47.5779 6.05574C46.4413 5.06736 45.0537 4.38622 43.4521 4.03455C42.6993 3.85687 41.9353 3.76802 41.1714 3.76802C40.7434 3.76802 40.3079 3.79764 39.8761 3.85316C38.7211 4.00494 37.6029 4.3307 36.5585 4.82674C35.5215 5.31908 34.5583 5.96689 33.7022 6.75167C33.4328 6.99969 33.1818 7.26252 32.942 7.53646C32.5323 6.76278 32.0452 6.02612 31.4806 5.32648C29.7314 3.13502 27.3511 1.96895 24.6055 1.96895C24.3287 1.96895 24.0446 1.98005 23.7604 2.00597H23.7419H23.7235C22.4356 2.12813 21.2362 2.46499 20.1586 3.00545C19.2692 3.44967 18.4352 4.01604 17.6676 4.68607C17.627 4.64905 17.5828 4.61203 17.5422 4.57502C16.3945 3.58293 14.9884 2.95733 13.3684 2.72041C12.8997 2.65008 12.431 2.61676 11.9734 2.61676C10.918 2.61676 9.89946 2.80185 8.94735 3.16833C8.52665 3.33121 8.11333 3.52 7.71108 3.74211C7.60037 3.68288 7.48966 3.62365 7.37526 3.57183C6.76636 3.29419 6.11317 3.15723 5.42676 3.15723C5.03189 3.15723 4.62596 3.20535 4.22002 3.29789C2.12021 3.80134 0.666215 5.29316 0.230755 7.4217C0.175399 7.66972 0.127425 7.92144 0.0868311 8.19538C0.0314759 8.55445 0.00195312 8.91723 0.00195312 9.2726V9.33183C0.0462373 11.4974 0.0794504 13.6888 0.101592 15.847C0.123735 18.0051 0.168019 20.2373 0.234445 22.4843V22.5139V22.5436C0.267658 23.2136 0.39313 23.891 0.599789 24.5499C0.769545 25.0904 0.972514 25.6123 1.20132 26.0973C1.6663 27.1153 2.40806 27.926 3.35279 28.4405C4.13514 28.8699 5.00606 29.0846 5.93603 29.0846C6.0246 29.0846 6.11317 29.0846 6.20173 29.0772C8.32368 28.9847 10.0286 27.8334 10.8811 25.9159C11.0914 25.4606 11.2575 24.9756 11.3756 24.4685C11.5195 24.7757 11.6893 25.0719 11.8812 25.3606C12.4421 26.2194 13.1654 26.8821 14.0253 27.3374C14.8519 27.7742 15.7302 28.0037 16.6417 28.0259C16.686 28.0259 16.734 28.0259 16.782 28.0259C17.6713 28.0259 18.5312 27.8186 19.3431 27.4114C20.2029 26.982 20.9336 26.3342 21.5277 25.4939C22.2215 24.524 22.6275 23.4172 22.7382 22.2585C22.7566 22.2585 22.7751 22.2659 22.7935 22.2659C22.8083 22.2659 22.8231 22.2585 22.8415 22.2585C22.8415 22.3622 22.8415 22.4695 22.8489 22.5732V22.5917V22.6102C22.9264 24.0354 23.4393 25.3532 24.325 26.423C25.2624 27.5558 26.4949 28.2776 27.8862 28.5034C28.2073 28.5553 28.5136 28.5775 28.8125 28.5775C29.927 28.5775 30.9787 28.2628 31.9456 27.6372C32.739 27.1264 33.3885 26.4601 33.8978 25.6568C35.1931 26.7118 36.743 27.4855 38.5513 27.9519C39.4628 28.1925 40.3854 28.3147 41.2822 28.3147C43.8654 28.3147 46.2198 27.3263 48.2791 25.3754C48.3787 25.2829 48.471 25.1866 48.5632 25.0867C49.9692 26.4415 51.7443 27.4077 53.8589 27.9519C54.7704 28.1925 55.693 28.3147 56.5897 28.3147C58.2135 28.3147 59.745 27.9223 61.1694 27.1486C61.3466 28.4812 61.7747 29.688 62.4537 30.7467C63.1659 31.8573 64.1143 32.8234 65.2805 33.623L65.2952 33.6341L65.31 33.6452C66.6385 34.5337 68.063 35.1815 69.5465 35.5776C70.5724 35.8478 71.6353 35.9885 72.7055 35.9885C73.2332 35.9885 73.7757 35.9552 74.3144 35.8885C75.4215 35.7479 76.4844 35.4961 77.4808 35.1371C78.6248 34.7225 79.6765 34.0858 80.6176 33.2455C81.7431 32.2756 82.6915 31.1724 83.4407 29.962C84.1824 28.7626 84.7286 27.4151 85.0718 25.9566C85.8763 26.6822 86.7509 27.2893 87.6883 27.7668C89.1718 28.5183 90.814 28.9143 92.5743 28.9514C92.7071 28.9551 92.8363 28.9588 92.9691 28.9588C94.3862 28.9588 95.748 28.6774 97.0138 28.1185C98.3165 27.5447 99.5195 26.7266 100.586 25.6864C100.715 25.5605 100.841 25.431 100.966 25.3014C101.343 25.7974 101.763 26.2602 102.239 26.6674C103.047 27.367 103.977 27.9297 104.996 28.3406C106.062 28.77 107.184 28.9847 108.332 28.9847C110.771 28.9847 113.074 28.0407 115.17 26.175C116.687 24.8165 117.613 23.295 117.923 21.644C118.207 20.1263 118.089 18.6159 117.569 17.1537L117.576 17.1574Z" fill="black"/>
<path d="M7.87094 6.80002C8.64591 6.08928 9.48362 5.56362 10.3767 5.21935C11.2734 4.87509 12.2514 4.77884 13.3179 4.93431C14.3807 5.08979 15.2701 5.47848 15.9897 6.10038C16.7093 6.72228 17.3441 7.46635 17.9013 8.33257C18.2334 7.97719 18.5471 7.63663 18.846 7.31827C19.1449 6.99622 19.4476 6.68897 19.7612 6.40023C20.4034 5.80054 21.1008 5.3119 21.8537 4.93431C22.6065 4.55673 23.4479 4.32352 24.3779 4.23467C26.5035 4.05699 28.2306 4.80105 29.5591 6.46686C30.3119 7.39971 30.8876 8.4029 31.2862 9.48012C31.6847 10.5573 31.9726 11.6864 32.1497 12.8599C32.3269 14.0593 32.4486 15.266 32.5151 16.4765C32.5815 17.687 32.5926 18.9012 32.5483 20.1228C32.5261 20.4115 32.504 20.6892 32.4819 20.9557C32.4597 21.2222 32.4265 21.4999 32.3822 21.7886C32.3601 22.0551 32.2715 22.355 32.1165 22.6881C31.8065 23.4433 31.3415 24.0208 30.7216 24.4206C30.1016 24.8204 29.4373 24.9648 28.7288 24.8537C28.0424 24.7426 27.4556 24.3947 26.9685 23.8024C26.4814 23.2138 26.2156 22.5216 26.1714 21.722C26.1492 21.2111 26.1751 20.7114 26.2562 20.2227C26.3337 19.7341 26.3928 19.2344 26.4408 18.7235C26.5293 17.9017 26.5736 17.0725 26.5736 16.2396C26.5736 15.4067 26.5072 14.5812 26.3743 13.7557C26.1972 12.6007 25.913 11.7678 25.5292 11.257C25.1418 10.7461 24.7137 10.4685 24.2524 10.4241C23.7874 10.3797 23.3077 10.5351 22.8058 10.8905C22.3076 11.2459 21.8537 11.7197 21.444 12.3083C21.0344 12.8969 20.6949 13.5632 20.4292 14.3073C20.1635 15.0513 20.0306 15.7917 20.0306 16.5246C20.0528 17.2354 20.0786 17.935 20.1118 18.6236C20.145 19.3121 20.1746 20.0006 20.1967 20.6892C20.241 21.5554 20.0085 22.3439 19.4992 23.0546C19.1892 23.4988 18.8239 23.8283 18.4032 24.0393C17.9825 24.2503 17.5433 24.3503 17.0931 24.3391C16.6392 24.328 16.2 24.2133 15.7794 23.9912C15.3587 23.7691 15.0044 23.4359 14.7165 22.9917C14.4287 22.5697 14.2442 22.1255 14.1704 21.659C14.0929 21.1926 14.0523 20.7151 14.0523 20.2264C14.0301 19.2714 14.0191 18.3163 14.0191 17.3613C14.0191 16.4062 13.9748 15.4511 13.8862 14.4961C13.7976 13.5188 13.5984 12.7377 13.2884 12.1454C12.9784 11.5568 12.6167 11.1459 12.2108 10.9127C11.8012 10.6795 11.3731 10.6092 10.9339 10.698C10.4911 10.7869 10.0962 11.0127 9.75302 11.3791C9.40981 11.7456 9.14411 12.2417 8.9559 12.8636C8.76769 13.4855 8.7271 14.1962 8.83781 14.9958C8.97066 16.2618 9.0703 17.5241 9.13673 18.7753C9.20316 20.0303 9.1478 21.2889 8.97066 22.5549C8.90424 23.0657 8.77138 23.5322 8.57211 23.9542C8.17355 24.8648 7.465 25.3423 6.44647 25.3868C5.95934 25.409 5.52019 25.3127 5.13639 25.1017C4.74891 24.8907 4.45737 24.565 4.25809 24.1207C4.08096 23.7432 3.92596 23.3434 3.79311 22.9214C3.66026 22.4994 3.58276 22.0773 3.56062 21.6553C3.49419 19.4343 3.44991 17.2391 3.42776 15.0735C3.40562 12.908 3.37241 10.7276 3.32812 8.52876C3.32812 8.32886 3.34289 8.12156 3.37979 7.91056C3.413 7.69956 3.44991 7.49596 3.49419 7.29606C3.69347 6.29658 4.28023 5.68578 5.25449 5.46367C5.74161 5.35262 6.166 5.38223 6.53135 5.54511C6.89669 5.71169 7.22144 5.98563 7.51298 6.36321C7.55726 6.42984 7.60524 6.49647 7.66059 6.56311C7.71595 6.62974 7.78606 6.70748 7.87463 6.79632L7.87094 6.80002Z" fill="white"/>
<path d="M39.4454 27.9192C34.0981 27.9192 29.7656 22.6849 29.7656 16.2252C29.7656 9.76559 34.0981 4.53125 39.4454 4.53125V27.9192Z" fill="black"/>
<path d="M38.3599 17.9279C38.5813 18.7275 39.0463 19.2827 39.7548 19.5937C41.4819 20.3711 43.0761 20.2045 44.5375 19.0939C44.7147 18.9607 44.8807 18.8274 45.0357 18.6941C45.1907 18.5609 45.3568 18.4387 45.5339 18.3277C46.2425 17.8834 46.8846 17.8834 47.4603 18.3277C48.036 18.7497 48.2131 19.3716 47.9917 20.1934C47.726 21.1262 47.2721 21.8925 46.6299 22.4922C44.5929 24.4245 42.268 25.0464 39.6552 24.3579C37.6624 23.847 36.1051 22.892 34.9906 21.4927C33.8724 20.0934 33.2561 18.3499 33.1454 16.2621C33.079 15.1959 33.1602 14.1631 33.3927 13.1637C33.6252 12.1642 33.9942 11.198 34.5072 10.2651C34.9057 9.48777 35.4261 8.80294 36.0682 8.21435C36.7103 7.62576 37.4188 7.14823 38.1938 6.78175C38.9688 6.41527 39.7807 6.17836 40.6368 6.06731C41.4893 5.95625 42.3344 6.00067 43.1758 6.20057C44.305 6.44489 45.2498 6.90021 46.0173 7.56653C46.7812 8.23286 47.3274 9.12129 47.6632 10.2318C47.9289 11.1203 47.988 11.9606 47.8478 12.7454C47.7038 13.5338 47.4086 14.2557 46.9695 14.9109C46.5266 15.5661 45.9657 16.1399 45.2904 16.6248C44.615 17.1135 43.8917 17.4985 43.1167 17.7761C42.3418 18.0537 41.5447 18.2166 40.7254 18.2573C39.9061 18.3018 39.1201 18.1907 38.3673 17.9242L38.3599 17.9279ZM40.8841 10.5983C40.0427 10.9315 39.5113 11.3498 39.2898 11.8495C39.0684 12.3493 39.05 12.7935 39.2382 13.1822C39.4264 13.5709 39.7733 13.8485 40.2826 14.0151C40.7918 14.1817 41.3786 14.0965 42.0428 13.7633C42.5521 13.4968 42.9101 13.1525 43.1204 12.7305C43.3308 12.3085 43.3861 11.9124 43.2865 11.546C43.1869 11.1795 42.9322 10.8908 42.5226 10.6797C42.113 10.4687 41.5631 10.4428 40.8767 10.5946L40.8841 10.5983Z" fill="white"/>
<path d="M54.7384 4.52734C49.3911 4.52734 45.0586 9.76169 45.0586 16.2213C45.0586 22.681 49.3911 27.9153 54.7384 27.9153V4.52734Z" fill="black"/>
<path d="M53.6704 17.9279C53.8919 18.7275 54.3568 19.2827 55.0654 19.5937C56.7925 20.3711 58.3867 20.2045 59.8481 19.0939C60.0252 18.9607 60.1913 18.8274 60.3463 18.6941C60.5013 18.5609 60.6673 18.4387 60.8445 18.3277C61.553 17.8834 62.1951 17.8834 62.7708 18.3277C63.3465 18.7497 63.5237 19.3716 63.3022 20.1934C63.0365 21.1262 62.5826 21.8925 61.9405 22.4922C59.9034 24.4245 57.5785 25.0464 54.9657 24.3579C52.973 23.847 51.4156 22.892 50.3011 21.4927C49.183 20.0934 48.5667 18.3499 48.456 16.2621C48.3895 15.1959 48.4707 14.1631 48.7032 13.1637C48.9357 12.1642 49.3048 11.198 49.8177 10.2651C50.2163 9.48777 50.7366 8.80294 51.3787 8.21435C52.0208 7.62576 52.7294 7.14823 53.5044 6.78175C54.2793 6.41527 55.0912 6.17836 55.9474 6.06731C56.7998 5.95625 57.6449 6.00067 58.4863 6.20057C59.6156 6.44489 60.5603 6.90021 61.3279 7.56653C62.0918 8.23286 62.638 9.12129 62.9738 10.2318C63.2395 11.1203 63.2985 11.9606 63.1583 12.7454C63.0144 13.5338 62.7192 14.2557 62.28 14.9109C61.8372 15.5661 61.2762 16.1399 60.6009 16.6248C59.9256 17.1135 59.2023 17.4985 58.4273 17.7761C57.6523 18.0537 56.8552 18.2166 56.0359 18.2573C55.2167 18.3018 54.4306 18.1907 53.6778 17.9242L53.6704 17.9279ZM56.1946 10.5983C55.3532 10.9315 54.8218 11.3498 54.6004 11.8495C54.379 12.3493 54.3605 12.7935 54.5487 13.1822C54.7369 13.5709 55.0838 13.8485 55.5931 14.0151C56.1024 14.1817 56.6891 14.0965 57.3534 13.7633C57.8627 13.4968 58.2206 13.1525 58.431 12.7305C58.6413 12.3085 58.6967 11.9124 58.597 11.546C58.4974 11.1795 58.2428 10.8908 57.8331 10.6797C57.4235 10.4687 56.8736 10.4428 56.1872 10.5946L56.1946 10.5983Z" fill="white"/>
<path d="M70.2403 25.6456C75.5863 25.6456 79.9201 21.1062 79.9201 15.5064C79.9201 9.90667 75.5863 5.36719 70.2403 5.36719C64.8943 5.36719 60.5605 9.90667 60.5605 15.5064C60.5605 21.1062 64.8943 25.6456 70.2403 25.6456Z" fill="black"/>
<path d="M77.4188 21.6596C77.0424 21.7707 76.6992 21.8781 76.3892 21.978C76.0792 22.078 75.7692 22.1816 75.4592 22.2964C74.7064 22.5407 73.8872 22.685 73.0015 22.7295C72.1158 22.7739 71.219 22.6776 70.3112 22.4444C69.4034 22.2112 68.5214 21.8336 67.6726 21.3117C66.8202 20.7897 66.0599 20.0938 65.3957 19.2313C64.5321 18.0985 64.0376 16.9324 63.9195 15.7331C63.7978 14.5337 63.9786 13.301 64.4657 12.035C65.2407 10.0138 66.3699 8.47014 67.8534 7.40402C69.337 6.3379 71.1305 5.66047 73.234 5.37173C73.9868 5.28289 74.843 5.29399 75.8061 5.40505C76.7693 5.5161 77.6993 5.74561 78.596 6.08988C79.4928 6.43415 80.2899 6.89317 80.9874 7.47065C81.6849 8.04813 82.1425 8.74777 82.3676 9.56957C82.6333 10.5468 82.8326 11.5204 82.9654 12.4866C83.0983 13.4528 83.1868 14.4374 83.2311 15.4332C83.2975 16.9658 83.2865 18.4761 83.1979 19.9642C83.1093 21.4523 82.9101 22.9405 82.6001 24.4286C82.3344 25.628 81.9026 26.7089 81.3048 27.6751C80.7069 28.6412 79.9541 29.5112 79.0463 30.2922C78.382 30.8919 77.6513 31.3362 76.8542 31.6249C76.0571 31.9136 75.2157 32.1135 74.33 32.2246C73.0679 32.3801 71.8501 32.3023 70.6766 31.9914C69.503 31.6804 68.3849 31.1696 67.322 30.4588C66.4806 29.8813 65.8127 29.2039 65.3108 28.4265C64.8126 27.6492 64.5174 26.7385 64.4325 25.6946C64.3661 25.206 64.3993 24.7618 64.5321 24.362C64.6207 24.0288 64.7646 23.7586 64.9639 23.5439C65.1632 23.3292 65.3957 23.1848 65.6614 23.0922C65.9271 23.0034 66.1965 22.9886 66.4769 23.0441C66.7537 23.0996 67.0268 23.2403 67.2925 23.4587C67.8682 23.9474 68.3443 24.4915 68.7207 25.0912C69.0085 25.5576 69.3628 25.9389 69.7835 26.2425C70.2042 26.5423 70.6618 26.7533 71.1637 26.8755C71.6619 26.9976 72.1859 27.031 72.7395 26.9754C73.293 26.9199 73.8466 26.7681 74.4001 26.5275C74.7101 26.372 74.9426 26.2166 75.0976 26.0611C75.7397 25.4836 76.2379 24.8284 76.5922 24.0954C76.9465 23.3625 77.2232 22.5518 77.4225 21.6634L77.4188 21.6596ZM72.8022 11.1984C72.3815 11.376 71.9608 11.6722 71.5401 12.0794C71.1194 12.4903 70.7762 12.9567 70.5105 13.4787C70.2448 14.0006 70.0898 14.5226 70.0455 15.0445C70.0012 15.5665 70.1341 16.0144 70.4441 16.392C70.9312 16.9695 71.4774 17.3471 72.09 17.5247C72.6989 17.7024 73.3558 17.7246 74.068 17.5914C74.7323 17.4581 75.3891 17.3137 76.0423 17.1583C76.6955 17.0028 77.3524 16.8473 78.0203 16.6918C78.0868 16.4031 78.1237 15.9589 78.1347 15.3592C78.1458 14.7595 78.1274 14.1265 78.0868 13.4602C78.0425 12.6384 77.8764 12.0054 77.5886 11.5611C77.3007 11.1169 76.9169 10.8245 76.4409 10.6801C75.9648 10.5357 75.415 10.5135 74.795 10.6135C74.175 10.7134 73.5107 10.9059 72.8022 11.1947V11.1984Z" fill="white"/>
<path d="M90.338 27.3089C95.684 27.3089 100.018 22.3385 100.018 16.2072C100.018 10.0759 95.684 5.10547 90.338 5.10547C84.992 5.10547 80.6582 10.0759 80.6582 16.2072C80.6582 22.3385 84.992 27.3089 90.338 27.3089Z" fill="black"/>
<path d="M102.097 14.5303C102.053 16.2627 101.787 17.8138 101.3 19.176C100.813 20.542 100.015 21.7562 98.9084 22.826C98.0891 23.6256 97.185 24.2401 96.2034 24.6732C95.2217 25.1063 94.1626 25.3025 93.0333 25.2581C91.7048 25.2359 90.4944 24.9471 89.3984 24.3919C88.3023 23.8366 87.3244 23.0481 86.4571 22.0264C85.66 21.0936 85.0622 20.0608 84.6636 18.928C84.2651 17.7953 84.0584 16.6403 84.0474 15.4631C84.0363 14.2859 84.2171 13.131 84.5935 11.9982C84.9699 10.8655 85.5456 9.83268 86.3206 8.89983C87.0734 7.94476 87.9148 7.16369 88.8448 6.55289C89.7748 5.94209 90.7416 5.52009 91.7528 5.28687C92.7603 5.05366 93.7825 5.02404 94.8268 5.20543C95.8675 5.38312 96.8861 5.79402 97.8825 6.43813C98.8788 7.08225 99.7202 7.90034 100.407 8.88872C101.093 9.8771 101.558 11.0506 101.802 12.4054C101.89 12.8274 101.953 13.2346 101.986 13.6233C102.019 14.012 102.056 14.3193 102.104 14.5377L102.097 14.5303ZM90.8376 18.6615C91.4576 19.4833 92.2325 19.9608 93.1625 20.0941C94.0925 20.2273 94.9671 19.9941 95.7863 19.3944C96.5392 18.8169 97.0448 18.0396 97.2994 17.0623C97.554 16.085 97.5577 15.1189 97.3142 14.1638C97.1592 13.5641 96.9304 13.0051 96.6314 12.4832C96.3325 11.9612 95.9856 11.517 95.5871 11.1505C95.1885 10.784 94.7604 10.5064 94.3102 10.3176C93.8563 10.1288 93.4061 10.0474 92.9669 10.0659C92.2584 10.1325 91.6421 10.5212 91.1217 11.232C90.6014 11.9427 90.225 12.7645 89.9925 13.6974C89.76 14.6302 89.6973 15.5631 89.8117 16.4959C89.9224 17.4288 90.2656 18.1506 90.8413 18.6615H90.8376Z" fill="white"/>
<path d="M104.887 26.1825C108.019 26.1825 110.559 23.7081 110.559 20.6557C110.559 17.6033 108.019 15.1289 104.887 15.1289C101.754 15.1289 99.2148 17.6033 99.2148 20.6557C99.2148 23.7081 101.754 26.1825 104.887 26.1825Z" fill="black"/>
<path d="M113.587 2.63608C114.428 3.01366 114.827 3.65778 114.783 4.56842C114.783 4.99042 114.672 5.3458 114.451 5.63454C114.229 5.92328 113.93 6.15649 113.554 6.33418C113.31 6.44523 113.078 6.53037 112.856 6.5859C112.635 6.64143 112.414 6.72657 112.192 6.83392C111.461 7.14487 110.864 7.51875 110.399 7.95186C109.934 8.38497 109.646 8.8477 109.535 9.33263C109.424 9.82127 109.506 10.3395 109.782 10.8837C110.059 11.4279 110.55 11.9794 111.258 12.5347C112.056 13.1344 112.819 13.8562 113.55 14.7002C114.281 15.5443 114.816 16.4512 115.163 17.4174C115.506 18.3835 115.584 19.3682 115.395 20.364C115.207 21.3598 114.602 22.3185 113.587 23.2292C112.037 24.6063 110.41 25.2948 108.705 25.2948C107.93 25.2948 107.181 25.1504 106.461 24.8617C105.741 24.5729 105.099 24.1843 104.535 23.6956C103.97 23.207 103.509 22.6295 103.154 21.9632C102.8 21.2969 102.612 20.575 102.59 19.7976C102.59 19.4422 102.671 19.098 102.837 18.7648C103.003 18.4317 103.236 18.1614 103.535 17.9467C103.833 17.7357 104.177 17.6136 104.564 17.5802C104.952 17.5469 105.365 17.6543 105.812 17.8986C106.52 18.2762 107.195 18.6093 107.838 18.8981C108.192 19.0313 108.539 19.0647 108.882 18.998C109.225 18.9314 109.506 18.7981 109.727 18.5982C109.948 18.3983 110.07 18.1429 110.092 17.832C110.114 17.521 109.993 17.199 109.727 16.8658C109.483 16.5548 109.214 16.2698 108.911 16.0144C108.612 15.759 108.306 15.5109 108 15.2666C107.756 15.0445 107.494 14.8446 107.218 14.6669C106.941 14.4892 106.679 14.2893 106.435 14.0672C104.642 12.5569 103.988 10.669 104.476 8.40348C104.697 7.42621 105.121 6.50076 105.752 5.62343C106.384 4.7461 107.125 4.01685 107.978 3.43937C108.83 2.86189 109.742 2.4843 110.716 2.30662C111.69 2.12893 112.642 2.23999 113.572 2.63978L113.587 2.63608Z" fill="white"/>
</g>
<defs>
<clipPath id="clip0_277_1327">
<rect width="118.08" height="36" fill="white"/>
</clipPath>
</defs>
</svg>